<?xml version="1.0" encoding="UTF-8" standalone="no"?>
<svg width="400px" height="400px" viewBox="0 0 400 400" version="1.1" xmlns="http://www.w3.org/2000/svg" xmlns:xlink="http://www.w3.org/1999/xlink">
    <!-- Generator: Sketch 3.6.1 (26313) - http://www.bohemiancoding.com/sketch -->
    <title>icon-sofa</title>
    <desc>Created with Sketch.</desc>
    <defs></defs>
    <g id="Page-1" stroke="none" stroke-width="1" fill="none" fill-rule="evenodd">
        <g id="sofa">
            <path d="M322,327 L360,327 L344,365 L322,365 L322,327 Z" id="Rectangle-6-Copy-2" fill="#0095D5" transform="translate(341.000000, 346.000000) scale(-1, 1) translate(-341.000000, -346.000000) "></path>
            <path d="M41,327 L79,327 L63,365 L41,365 L41,327 Z" id="Rectangle-6-Copy-3" fill="#0095D5"></path>
            <rect id="Rectangle-5-Copy-2" fill="#3BB5EA" x="50" y="260" width="300" height="60" rx="5"></rect>
            <path d="M50,320 L350,320 L50,281.39354 L50,320 Z" id="Rectangle-5-Copy-7" fill="#2AA9E0" transform="translate(200.000000, 300.696770) scale(-1, 1) translate(-200.000000, -300.696770) "></path>
            <rect id="Rectangle-5-Copy-3" fill="#3BB5EA" x="51" y="156" width="144" height="98" rx="24"></rect>
            <rect id="Rectangle-5-Copy-4" fill="#3BB5EA" x="205" y="156" width="144" height="98" rx="24"></rect>
            <rect id="Rectangle-32" fill="#3BB5EA" x="51" y="220" width="144" height="34"></rect>
            <rect id="Rectangle-32-Copy" fill="#3BB5EA" x="205" y="220" width="144" height="34"></rect>
            <path d="M50.625,254 L194.697581,254 L194.697586,216.000001 L50.625,254 Z" id="Rectangle-5-Copy-9" fill="#30A7DA"></path>
            <path d="M205,254 L349.072581,254 L349.072586,216 L205,254 Z" id="Rectangle-5-Copy-13" fill="#30A7DA"></path>
            <g id="Group-2" transform="translate(6.000000, 200.000000)">
                <rect id="Rectangle-5-Copy-6" fill="#3BB5EA" x="0" y="0" width="38" height="120" rx="10"></rect>
                <rect id="Rectangle-34" fill="#3BB5EA" x="0" y="94" width="38" height="26"></rect>
                <path d="M0,120.000001 L38,120.000001 L38,103.578125 L0,120.000001 Z" id="Rectangle-5-Copy-11" fill="#2EABE1"></path>
            </g>
            <g id="Group-2-Copy-2" transform="translate(356.000000, 200.000000)">
                <rect id="Rectangle-5-Copy-6" fill="#3BB5EA" x="0" y="0" width="38" height="120" rx="10"></rect>
                <rect id="Rectangle-34" fill="#3BB5EA" x="0" y="94" width="38" height="26"></rect>
                <path d="M0,120.000001 L38,120.000001 L38,103.578125 L0,120.000001 Z" id="Rectangle-5-Copy-11" fill="#2EABE1"></path>
            </g>
        </g>
    </g>
</svg>